HIERARCHY
ROOT Hips
{
  OFFSET 0 0 0
  CHANNELS 6 Xposition Yposition Zposition Zrotation Yrotation Xrotation
  JOINT LeftThigh
  {
    OFFSET 8.409438 0 -5.917753
    CHANNELS 3 Zrotation Yrotation Xrotation
    JOINT LeftLeg
    {
      OFFSET 0 0 -42.358652
      CHANNELS 3 Zrotation Yrotation Xrotation
      JOINT LeftFoot
      {
        OFFSET 0 0 -39.357303
        CHANNELS 3 Zrotation Yrotation Xrotation
      }
    }
  }
  JOINT RightThigh
  {
    OFFSET -8.409438 0 -5.917753
    CHANNELS 3 Zrotation Yrotation Xrotation
    JOINT RightLeg
    {
      OFFSET 0 0 -42.358652
      CHANNELS 3 Zrotation Yrotation Xrotation
      JOINT RightFoot
      {
        OFFSET 0 0 -39.357303
        CHANNELS 3 Zrotation Yrotation Xrotation
      }
    }
  }
  JOINT SpineLow
  {
    OFFSET 0 0 4.719101
    CHANNELS 3 Zrotation Yrotation Xrotation
    JOINT SpineMid
    {
      OFFSET 0 0 12.899191
      CHANNELS 3 Zrotation Yrotation Xrotation
      JOINT Chest
      {
        OFFSET 0 0 12.899191
        CHANNELS 3 Zrotation Yrotation Xrotation
        JOINT LeftShoulder
        {
          OFFSET 7.550562 1.41573 9.438202
          CHANNELS 3 Zrotation Yrotation Xrotation
          JOINT LeftArm
          {
            OFFSET 9.155056 0 4.247191
            CHANNELS 3 Zrotation Yrotation Xrotation
            JOINT LeftForearm
            {
              OFFSET 0 0 25.771955
              CHANNELS 3 Zrotation Yrotation Xrotation
              JOINT LeftHand
              {
                OFFSET 0 0 25.197169
                CHANNELS 3 Zrotation Yrotation Xrotation
              }
            }
          }
        }
        JOINT RightShoulder
        {
          OFFSET -7.550562 1.41573 9.438202
          CHANNELS 3 Zrotation Yrotation Xrotation
          JOINT RightArm
          {
            OFFSET -9.155056 0 4.247191
            CHANNELS 3 Zrotation Yrotation Xrotation
            JOINT RightForearm
            {
              OFFSET 0 0 -25.771955
              CHANNELS 3 Zrotation Yrotation Xrotation
              JOINT RightHand
              {
                OFFSET 0 0 -25.197169
                CHANNELS 3 Zrotation Yrotation Xrotation
              }
            }
          }
        }
        JOINT Neck
        {
          OFFSET 0 0 15.101124
          CHANNELS 3 Zrotation Yrotation Xrotation
          JOINT Head
          {
            OFFSET 0 0 11.325843
            CHANNELS 3 Zrotation Yrotation Xrotation
            End Site
            {
              OFFSET 0 0 14.157303
            }
          }
        }
      }
    }
  }
}
MOTION
Frames: 16
Frame Time: 0.0
0.0  93.25843  0.0  -4.429136  -0.088951  -109.199592  15.239541  -12.723655  4.061456  -14.106102  1.997363  4.461788  1.237091  1.788402  2.807976  12.960651  -20.816893  -75.429324  20.698659  30.796729  106.088941  12.599478  7.952797  5.524763  -0.929341  -1.45909  0.892238  -2.596597  -3.952645  2.497297  -2.596598  -3.952645  2.497297  -12.854764  12.384923  9.293662  -101.793241  76.320848  -43.822446  -26.731187  -23.264851  84.491651  102.453663  18.018131  30.009795  9.493753  -5.429814  6.781519  120.207489  79.950799  53.562292  -34.67026  17.665799  -61.711164  76.734775  6.110015  -22.478887  -25.256524  10.898323  8.420514  -19.040327  7.844254  6.765458  
0.0  93.25843  0.0  -4.935643  1.027775  -110.644295  14.667151  -13.287144  5.528232  -14.935861  1.890764  4.508675  0.904244  1.750092  2.688863  13.524471  -21.835418  -78.145361  21.455982  31.182406  106.503985  12.720578  8.013137  5.579753  -1.256861  -1.607215  0.98524  -3.505046  -4.33968  2.77952  -3.505046  -4.339679  2.77952  -12.087858  14.329553  9.951609  -111.557314  75.863767  -53.625206  -26.950157  -21.673944  85.793427  103.182274  18.653838  26.931427  9.325968  -4.852681  8.023395  115.335396  78.635428  48.976705  -35.555499  16.65984  -63.803403  76.574352  5.207749  -22.753139  -24.779833  11.669419  8.334049  -18.684671  8.433456  6.72116  
0.0  93.25843  0.0  -5.518769  0.951569  -112.525194  14.672186  -14.339851  7.339374  -15.658257  1.818494  4.580406  0.529716  1.735871  2.525293  15.071094  -23.328701  -80.563874  22.188045  31.614607  106.898085  12.802054  8.072623  5.591089  -1.343319  -1.827544  1.13  -3.762865  -4.929493  3.194768  -3.762865  -4.929493  3.194767  -11.662456  16.305708  10.682082  -122.722402  74.836392  -64.784103  -26.644347  -20.123093  86.911257  103.52279  19.145021  23.690905  8.56079  -4.304105  9.461106  110.892103  77.14241  44.913966  -36.158771  15.961776  -65.814167  76.42429  4.276797  -23.089397  -24.489034  12.528897  8.373289  -18.470392  9.081668  6.777112  
0.0  93.25843  0.0  -6.066679  1.975811  -114.079698  13.347272  -14.732166  8.979417  -16.140556  1.714172  4.77426  0.495207  1.685878  2.505821  15.647471  -24.209079  -83.179908  22.890706  32.013316  107.187823  12.806353  8.129855  5.584816  -1.52238  -1.96644  1.198526  -4.266148  -5.295483  3.405269  -4.266148  -5.295484  3.405269  -11.459012  18.110849  11.362267  -133.90863  73.162959  -75.97143  -25.9238  -18.433148  87.771845  103.621634  19.578114  20.16766  7.258453  -3.899446  10.972619  106.484824  75.550046  40.913641  -36.455263  15.574359  -67.755269  76.404174  3.243506  -23.526553  -24.47802  13.264839  8.439635  -18.465131  9.632494  6.854298  
0.0  93.25843  0.0  -6.519692  2.676256  -115.709332  11.953188  -14.920483  10.659355  -16.321855  1.531811  5.147343  0.722857  1.575491  2.607496  16.401693  -25.075741  -85.557078  23.564292  32.332429  107.226509  12.801349  8.144335  5.637312  -1.610014  -2.094656  1.312519  -4.523341  -5.633072  3.733861  -4.523341  -5.633073  3.733861  -11.511932  19.84554  11.731738  -144.059515  70.923068  -86.288919  -24.97576  -16.354615  88.250018  103.598395  19.754832  16.145883  5.926213  -3.646146  12.43431  101.880832  73.871872  37.195301  -36.44801  15.439373  -69.659351  76.737636  2.101462  -23.955732  -24.521752  13.895359  8.476708  -18.499582  10.104551  6.906858  
0.0  93.25843  0.0  -6.989948  3.405753  -117.315316  10.544146  -15.022211  12.311543  -16.324535  1.390287  5.648961  0.728926  1.496502  2.606476  17.076673  -25.806466  -87.798836  24.134339  32.581358  107.173638  12.766032  8.157919  5.660387  -1.695645  -2.243367  1.41242  -4.776602  -6.026823  4.026455  -4.776602  -6.026823  4.026455  -11.734396  21.723296  11.96431  -153.106089  68.13054  -95.75536  -23.942895  -13.786319  88.224493  103.410509  19.596629  11.52486  4.379358  -3.012267  13.755885  96.613286  71.657993  32.946056  -36.215699  15.415195  -71.584583  77.700151  0.877328  -24.429283  -24.705831  14.565798  8.453143  -18.636918  10.607321  6.919249  
0.0  93.25843  0.0  -7.424058  3.324522  -119.022258  9.954823  -15.631622  14.000641  -16.070818  1.306371  6.297133  0.545815  1.447296  2.541275  18.450369  -26.750881  -89.964726  23.881378  30.809011  107.606518  10.638339  8.358822  4.821001  -1.643165  -2.466945  1.552649  -4.66256  -6.630486  4.423528  -4.66256  -6.630486  4.423529  -12.226287  23.8141  11.965004  -160.896147  64.963074  -104.044245  -22.965344  -10.828971  87.549951  103.008154  19.185307  6.376386  2.85251  -2.145971  15.268929  91.423018  69.283735  29.362096  -35.815393  15.425273  -73.472021  78.967072  -0.301175  -25.074169  -24.990227  15.330916  8.359926  -18.84655  11.182923  6.88639  
0.0  93.25843  0.0  -7.970977  3.95647  -120.507168  8.799395  -15.900726  15.531185  -15.958091  1.282531  6.866265  0.363302  1.374661  2.445438  19.128983  -27.391134  -92.072438  24.281604  30.921896  107.354414  10.860105  8.392277  4.872391  -1.734905  -2.616285  1.603588  -4.930979  -7.027981  4.584868  -4.930979  -7.027981  4.584868  -12.236883  25.872066  12.534416  -167.087697  61.561768  -110.731849  -22.006394  -7.875047  86.187175  102.723755  18.455074  1.118512  1.243877  -1.147247  16.871416  86.745056  66.293547  26.206465  -35.293718  15.320633  -75.187634  80.476601  -1.375232  -25.798008  -25.160273  16.023945  8.485176  -18.97611  11.696972  7.011429  
0.0  93.25843  0.0  -8.49369  4.472458  -121.945134  8.284765  -16.492448  16.996038  -16.49333  1.387246  7.233174  0.068101  1.321832  2.31176  19.859787  -27.898825  -94.041633  24.615479  30.965015  107.045255  13.703718  7.878962  5.946658  -1.809622  -2.715189  1.64739  -5.148646  -7.289124  4.721594  -5.148646  -7.289124  4.721594  -12.214028  27.730444  13.210789  -172.060836  58.115942  -116.5935  -20.893501  -5.190527  84.217054  102.840106  17.800791  -4.150815  -0.29829  -0.396396  18.641371  83.104207  63.113393  24.334207  -34.736441  15.009535  -76.50893  82.050394  -2.344073  -26.559476  -25.313992  16.601382  8.722608  -19.096637  12.119732  7.215497  
0.0  93.25843  0.0  -8.977013  4.935498  -123.257721  8.069319  -17.083987  18.171154  -17.189811  1.489652  7.735905  -0.132273  1.317308  2.249407  20.555805  -28.276347  -95.960914  25.023004  30.944816  106.716376  14.11756  7.672056  5.96784  -1.867759  -2.786815  1.732814  -5.323667  -7.473288  4.968759  -5.323666  -7.473288  4.968759  -12.095115  29.165898  13.770997  -176.306297  54.784859  -121.884408  -19.559292  -3.287231  81.743255  102.776533  17.526999  -9.368815  -2.25961  0.440214  20.014204  81.057373  59.631589  23.491813  -34.284377  14.516352  -77.14926  83.762658  -3.15461  -27.403769  -25.519728  16.934953  8.864341  -19.253487  12.362275  7.340346  
0.0  93.25843  0.0  -9.388537  5.557654  -124.35956  8.131091  -17.731128  19.091204  -18.507977  1.755698  8.009732  0.084036  1.309963  2.457534  21.075034  -28.394068  -97.678505  25.410724  30.977476  106.293438  14.58912  7.45479  5.941944  -2.031345  -2.721405  1.840436  -5.77812  -7.272435  5.275552  -5.77812  -7.272436  5.275552  -11.145856  29.866389  14.653625  179.941525  52.140607  -126.811927  -18.338398  -2.107621  78.926766  102.082976  18.067983  -14.687929  -3.541587  0.498198  21.288026  79.956778  56.118292  23.531092  -33.768045  14.199715  -76.968492  85.454686  -3.908694  -28.076322  -25.206994  16.909887  9.144098  -19.02892  12.336055  7.538733  
0.0  93.25843  0.0  -9.798128  5.999428  -125.398745  8.191366  -18.355442  19.8203  -19.626234  1.974044  8.500327  -0.007937  1.353426  2.479829  21.630448  -28.60758  -99.189021  25.844689  30.973111  105.871849  15.066616  7.168692  5.901335  -2.171014  -2.756054  2.023765  -6.184356  -7.33789  5.796853  -6.184356  -7.33789  5.796853  -10.585199  30.93291  15.191886  177.372625  50.207964  -130.873699  -16.95825  -0.807228  75.675282  100.291362  19.112228  -20.114482  -4.716945  1.09369  21.844745  79.063302  52.454904  23.93506  -33.199338  13.823174  -76.101337  87.538443  -4.884212  -28.523457  -25.169633  16.888456  8.929476  -18.994811  12.329061  7.376712  
0.0  93.25843  0.0  -10.13735  6.504  -126.301291  7.792049  -18.457357  20.386942  -19.890269  2.087526  9.283409  -0.024023  1.353231  2.658003  22.132134  -28.594016  -100.502652  26.053728  31.137446  105.48774  15.644309  6.934135  5.877798  -2.385386  -2.677532  2.167684  -6.778953  -7.089204  6.205374  -6.778953  -7.089204  6.205374  -9.478753  31.615124  16.062246  176.648253  48.59151  -133.955086  -16.407244  2.579663  72.137073  95.312045  17.075963  -27.173008  -5.023914  1.173349  22.78869  77.758269  48.931445  24.472143  -32.41316  13.087635  -74.680259  89.980608  -6.076876  -28.82649  -24.70426  16.675569  9.025893  -18.65127  12.171049  7.426793  
0.0  93.25843  0.0  -10.342599  6.975755  -127.26693  7.192103  -18.435799  21.181148  -20.044569  2.229937  9.909429  -0.158034  1.342085  2.707604  22.14029  -28.691586  -101.175177  26.137974  30.645225  105.17551  15.896317  6.680732  5.580932  -2.43988  -2.625128  2.422705  -6.94861  -6.913606  6.903319  -6.94861  -6.913607  6.903319  -9.974337  32.427265  15.534768  177.732465  46.759477  -136.21326  -14.871309  6.793039  67.241994  92.524275  15.027435  -31.12423  -6.227196  1.284746  22.73411  76.125039  45.374333  25.186636  -31.28404  12.187796  -72.970999  92.800098  -7.277411  -29.005226  -24.96803  16.164571  8.742396  -18.83994  11.794733  7.203423  
0.0  93.25843  0.0  -10.366901  7.585612  -128.112491  6.307213  -18.142614  22.012304  -18.950058  2.128639  10.947144  -0.372407  1.360864  2.762605  22.2885  -28.902814  -101.443304  26.378971  30.64454  104.676724  16.301396  6.463679  5.44504  -2.489451  -2.490603  2.614003  -7.086603  -6.520581  7.41565  -7.086603  -6.520581  7.415651  -10.178634  32.815915  15.322453  178.427404  45.303708  -138.71368  -13.468893  10.241609  62.059981  90.33709  13.148206  -32.318849  -7.410931  1.084137  22.826304  73.695475  41.692879  26.107385  -29.671257  11.298513  -71.470476  95.551883  -8.777875  -29.095963  -25.161265  15.60859  8.679306  -18.982491  11.376788  7.14028  
0.0  93.25843  0.0  -10.244838  8.12147  -128.781453  5.32742  -17.599815  22.634479  -18.581566  2.426823  11.524264  -0.537412  1.376337  2.793725  22.502741  -29.136831  -101.599307  26.641385  30.624168  104.422256  16.550718  6.327083  5.304705  -2.430236  -2.368109  2.724961  -6.9191  -6.181601  7.699005  -6.9191  -6.181601  7.699006  -10.45527  32.809198  15.706471  177.322347  44.685164  -141.828303  -12.167284  11.764718  56.813302  86.314613  12.111037  -32.305127  -9.180121  0.822461  23.521749  70.650522  38.532932  27.333891  -27.576906  10.150269  -70.202594  97.622606  -10.148637  -28.509485  -25.634379  15.175009  8.706648  -19.336064  11.043744  7.156511  
